<mxfile host="65bd71144e">
    <diagram name="Two Pointer Approach" id="approach1">
        <mxGraphModel dx="1046" dy="809" grid="1" gridSize="10" guides="1" tooltips="1" connect="1" arrows="1" fold="1" page="1" pageScale="1" pageWidth="1100" pageHeight="850" background="#0f0f0f" math="0" shadow="0">
            <root>
                <mxCell id="0"/>
                <mxCell id="1" parent="0"/>
                <mxCell id="2" value="Remove Duplicates: Two Pointer Approach" style="text;html=1;fontSize=24;fontStyle=1;verticalAlign=middle;align=center;fontColor=#ffffff;fontFamily=Helvetica;sketch=1;curveFitting=1;jiggle=2;rounded=1;fillColor=#0050ef;strokeColor=#001DBC;" parent="1" vertex="1">
                    <mxGeometry x="250" y="20" width="600" height="40" as="geometry"/>
                </mxCell>
                <mxCell id="3" value="Initial Array" style="swimlane;fontStyle=1;childLayout=stackLayout;horizontal=1;startSize=30;fillColor=#3498DB;horizontalStack=0;resizeParent=1;resizeParentMax=0;resizeLast=0;collapsible=0;marginBottom=0;fontColor=#FFFFFF;strokeColor=#3498DB;rounded=1;fontSize=14;sketch=1;curveFitting=1;jiggle=2;" parent="1" vertex="1">
                    <mxGeometry x="40" y="100" width="1000" height="100" as="geometry"/>
                </mxCell>
                <mxCell id="4" value="[0, 0, 1, 1, 1, 2, 2, 3, 3, 4]" style="text;strokeColor=none;fillColor=#808080;align=center;verticalAlign=middle;spacingLeft=4;spacingRight=4;overflow=hidden;rotatable=0;points=[[0,0.5],[1,0.5]];portConstraint=eastwest;fontSize=16;sketch=1;curveFitting=1;jiggle=2;rounded=1;" parent="3" vertex="1">
                    <mxGeometry y="30" width="1000" height="70" as="geometry"/>
                </mxCell>
                <mxCell id="5" value="Step 1: Initialize Pointers" style="swimlane;fontStyle=1;childLayout=stackLayout;horizontal=1;startSize=30;fillColor=#2ECC71;horizontalStack=0;resizeParent=1;resizeParentMax=0;resizeLast=0;collapsible=0;marginBottom=0;fontColor=#FFFFFF;strokeColor=#2ECC71;rounded=1;fontSize=14;sketch=1;curveFitting=1;jiggle=2;" parent="1" vertex="1">
                    <mxGeometry x="40" y="240" width="1000" height="100" as="geometry"/>
                </mxCell>
                <mxCell id="6" value="[0, 0, 1, 1, 1, 2, 2, 3, 3, 4]&#10;↑&#10;u,c" style="text;strokeColor=none;fillColor=#808080;align=center;verticalAlign=middle;spacingLeft=4;spacingRight=4;overflow=hidden;rotatable=0;points=[[0,0.5],[1,0.5]];portConstraint=eastwest;fontSize=16;sketch=1;curveFitting=1;jiggle=2;rounded=1;" parent="5" vertex="1">
                    <mxGeometry y="30" width="1000" height="70" as="geometry"/>
                </mxCell>
                <mxCell id="7" value="Step 2: Move Current Pointer" style="swimlane;fontStyle=1;childLayout=stackLayout;horizontal=1;startSize=30;fillColor=#E74C3C;horizontalStack=0;resizeParent=1;resizeParentMax=0;resizeLast=0;collapsible=0;marginBottom=0;fontColor=#FFFFFF;strokeColor=#E74C3C;rounded=1;fontSize=14;sketch=1;curveFitting=1;jiggle=2;" parent="1" vertex="1">
                    <mxGeometry x="40" y="380" width="1000" height="100" as="geometry"/>
                </mxCell>
                <mxCell id="8" value="[0, 0, 1, 1, 1, 2, 2, 3, 3, 4]&#10;  ↑  ↑&#10;  u  c" style="text;strokeColor=none;fillColor=#808080;align=center;verticalAlign=middle;spacingLeft=4;spacingRight=4;overflow=hidden;rotatable=0;points=[[0,0.5],[1,0.5]];portConstraint=eastwest;fontSize=16;sketch=1;curveFitting=1;jiggle=2;rounded=1;" parent="7" vertex="1">
                    <mxGeometry y="30" width="1000" height="70" as="geometry"/>
                </mxCell>
                <mxCell id="9" value="Step 3: Found New Element" style="swimlane;fontStyle=1;childLayout=stackLayout;horizontal=1;startSize=30;fillColor=#9B59B6;horizontalStack=0;resizeParent=1;resizeParentMax=0;resizeLast=0;collapsible=0;marginBottom=0;fontColor=#FFFFFF;strokeColor=#9B59B6;rounded=1;fontSize=14;sketch=1;curveFitting=1;jiggle=2;" parent="1" vertex="1">
                    <mxGeometry x="40" y="520" width="1000" height="100" as="geometry"/>
                </mxCell>
                <mxCell id="10" value="[0, 1, 1, 1, 1, 2, 2, 3, 3, 4]&#10;     ↑     ↑&#10;     u     c" style="text;strokeColor=none;fillColor=#808080;align=center;verticalAlign=middle;spacingLeft=4;spacingRight=4;overflow=hidden;rotatable=0;points=[[0,0.5],[1,0.5]];portConstraint=eastwest;fontSize=16;sketch=1;curveFitting=1;jiggle=2;rounded=1;" parent="9" vertex="1">
                    <mxGeometry y="30" width="1000" height="70" as="geometry"/>
                </mxCell>
                <mxCell id="11" value="Legend" style="swimlane;fontStyle=1;childLayout=stackLayout;horizontal=1;startSize=30;fillColor=#34495E;horizontalStack=0;resizeParent=1;resizeParentMax=0;resizeLast=0;collapsible=0;marginBottom=0;fontColor=#FFFFFF;strokeColor=#34495E;rounded=1;fontSize=14;sketch=1;curveFitting=1;jiggle=2;" parent="1" vertex="1">
                    <mxGeometry x="40" y="660" width="300" height="120" as="geometry"/>
                </mxCell>
                <mxCell id="12" value="u = Unique Pointer (last unique element)&#10;c = Current Pointer (scanning array)&#10;↑ = Pointer Position&#10;Modified elements shown in bold" style="text;strokeColor=none;fillColor=#666666;align=left;verticalAlign=middle;spacingLeft=4;spacingRight=4;overflow=hidden;rotatable=0;points=[[0,0.5],[1,0.5]];portConstraint=eastwest;fontSize=14;sketch=1;curveFitting=1;jiggle=2;rounded=1;" parent="11" vertex="1">
                    <mxGeometry y="30" width="300" height="90" as="geometry"/>
                </mxCell>
                <mxCell id="13" value="Key Points" style="swimlane;fontStyle=1;childLayout=stackLayout;horizontal=1;startSize=30;fillColor=#F1C40F;horizontalStack=0;resizeParent=1;resizeParentMax=0;resizeLast=0;collapsible=0;marginBottom=0;fontColor=#FFFFFF;strokeColor=#F1C40F;rounded=1;fontSize=14;sketch=1;curveFitting=1;jiggle=2;" parent="1" vertex="1">
                    <mxGeometry x="380" y="660" width="660" height="120" as="geometry"/>
                </mxCell>
                <mxCell id="14" value="1. Unique pointer (u) marks the position of last unique element&#10;2. Current pointer (c) scans through array looking for new elements&#10;3. When current finds new element, increment unique and copy element&#10;4. Final length is (unique pointer + 1) due to 0-based indexing" style="text;strokeColor=none;fillColor=#666666;align=left;verticalAlign=middle;spacingLeft=4;spacingRight=4;overflow=hidden;rotatable=0;points=[[0,0.5],[1,0.5]];portConstraint=eastwest;fontSize=14;sketch=1;curveFitting=1;jiggle=2;rounded=1;" parent="13" vertex="1">
                    <mxGeometry y="30" width="660" height="90" as="geometry"/>
                </mxCell>
            </root>
        </mxGraphModel>
    </diagram>
</mxfile>